# xmcd
#
# Track frame offsets:
#	150
#	21192
#	41024
#	57804
#	81896
#	102922
#	125051
#	145766
#	164668
#	188985
#
# Disc length: 2711 seconds
#
# Revision: 0
# Processed by: cddbd v1.5.2PL0 Copyright (c) Steve Scherf et al.
# Submitted via: dBpowerAMP V4.0
#
DISCID=8a0a950a
DTITLE=BIG MAN AUDIO - SHOW-UL VEDETELOR
DYEAR=2008
DGENRE=Country
TTITLE0=Nicu Paleru and Alina - Ca la noi , primar mai rar
TTITLE1=Nicu Paleru and Alina - Treci vecina drumu-n-coace
TTITLE2=Doina Mihalcea - Hai lasa , Gheorghe
TTITLE3=Nicu Paleru - De necaz dac-am sa trec
TTITLE4=Nicu Paleru - Carciumare da sticluta
TTITLE5=Nicu Paleru and Alina - Sus paharul , sus
TTITLE6=Oana and Luiza - Azi e nunta mare
TTITLE7=Felicia Grigore - Omule-n viata traieste
TTITLE8=Nicu Paleru - Hai noroc si la mai mare
TTITLE9=Nicu Paleru - De-aia beau
EXTD=
EXTT0=
EXTT1=
EXTT2=
EXTT3=
EXTT4=
EXTT5=
EXTT6=
EXTT7=
EXTT8=
EXTT9=
PLAYORDER=
